
<svg width="22px" height="22px" viewBox="0 0 22 22" version="1.1" xmlns="http://www.w3.org/2000/svg" xmlns:xlink="http://www.w3.org/1999/xlink">
    <!-- Generator: Sketch 46.2 (44496) - http://www.bohemiancoding.com/sketch -->
    <desc>Created with Sketch.</desc>
    <defs>
        <polygon id="path-1" points="21.3333333 0 21.3333333 21.3333333 0 21.3333333 1.13686974e-16 2.42532114e-15"></polygon>
    </defs>
    <g id="DEMO-product-design" stroke="none" stroke-width="1" fill="none" fill-rule="evenodd" opacity="0.803158967">
        <g id="DESKTOP---Channel" transform="translate(-313.000000, -969.000000)" stroke="#979797">
            <g id="Icons/Grey-Actions" transform="translate(312.000000, 968.000000)">
                <g id="Page-1" stroke="none" transform="translate(1.333333, 1.333333)">
                    <mask id="mask-2" fill="white">
                        <use xlink:href="#path-1"></use>
                    </mask>
                    <g id="Clip-2"></g>
                    <path d="M16.8987733,8.73783467 L10.1956693,15.4409387 C9.78112,15.8554453 9.10903467,15.855488 8.69448533,15.4409813 L4.43451733,11.181952 C3.93258667,10.680064 3.932544,9.86632533 4.434432,9.36443733 C4.93632,8.862464 5.75005867,8.86242133 6.252032,9.36430933 L8.6944,11.805952 C9.10894933,12.2204587 9.78103467,12.2204587 10.195584,11.8059093 L15.0811733,6.92027733 C15.583104,6.41838933 16.3968427,6.41838933 16.8987733,6.92027733 C17.149696,7.17124267 17.2751787,7.50016 17.2751787,7.82907733 C17.2751787,8.15799467 17.149696,8.48686933 16.8987733,8.73783467 M10.6666667,0 C4.77559467,0 0,4.77559467 0,10.6666667 C0,16.557696 4.77559467,21.3333333 10.6666667,21.3333333 C16.557696,21.3333333 21.3333333,16.557696 21.3333333,10.6666667 C21.3333333,4.77559467 16.557696,0 10.6666667,0" id="Fill-1" fill="#727272" mask="url(#mask-2)"></path>
                </g>
            </g>
        </g>
    </g>
</svg>
