
<svg width="16px" height="17px" viewBox="0 0 16 17" version="1.1" xmlns="http://www.w3.org/2000/svg" xmlns:xlink="http://www.w3.org/1999/xlink">
    <!-- Generator: Sketch 46.2 (44496) - http://www.bohemiancoding.com/sketch -->
    <desc>Created with Sketch.</desc>
    <defs></defs>
    <g id="DEMO-product-design" stroke="none" stroke-width="1" fill="none" fill-rule="evenodd">
        <g id="DESKTOP---add-a-channel-(Direct)" transform="translate(-554.000000, -498.000000)" fill="#FFFFFF">
            <g id="Group-6" transform="translate(350.000000, 168.000000)">
                <g id="Page-1" transform="translate(204.000000, 330.073333)">
                    <path d="M12.67408,6.57522059 L7.646752,11.6193063 C7.33584,11.9312226 6.831776,11.9312547 6.520864,11.6193385 L3.325888,8.41441888 C2.94944,8.03674816 2.949408,7.42440981 3.325824,7.04673909 C3.70224,6.66900416 4.312544,6.66897205 4.689024,7.04664277 L6.5208,8.88397888 C6.831712,9.19589515 7.335776,9.19589515 7.646688,8.88394677 L11.31088,5.20750869 C11.687328,4.82983797 12.297632,4.82983797 12.67408,5.20750869 C12.862272,5.39636011 12.956384,5.6438704 12.956384,5.89138069 C12.956384,6.13889099 12.862272,6.38636917 12.67408,6.57522059 M8,0 C3.581696,0 0,3.59363499 0,8.02666667 C0,12.4596662 3.581696,16.0533333 8,16.0533333 C12.418272,16.0533333 16,12.4596662 16,8.02666667 C16,3.59363499 12.418272,0 8,0" id="Fill-1"></path>
                </g>
            </g>
        </g>
    </g>
</svg>
