
<svg width="12px" height="17px" viewBox="0 0 12 17" version="1.1" xmlns="http://www.w3.org/2000/svg" xmlns:xlink="http://www.w3.org/1999/xlink">
    <!-- Generator: Sketch 46.2 (44496) - http://www.bohemiancoding.com/sketch -->
    <desc>Created with Sketch.</desc>
    <defs></defs>
    <g id="Symbols" stroke="none" stroke-width="1" fill="none" fill-rule="evenodd">
        <g id="File-1" transform="translate(-229.000000, -16.000000)" fill="#D72323">
            <path d="M242.597016,22.8988167 C242.596581,22.89771 241.207457,21.5080525 238.429644,18.7298442 C237.734993,18.0352527 236.608765,18.0352527 235.914114,18.7298442 C235.219463,19.4244951 235.219463,20.5507237 235.914114,21.2453745 L237.060205,22.3914655 L228.569823,22.3914655 C227.587434,22.3914655 226.791099,23.1878593 226.791099,24.1701891 C226.791099,25.1525189 227.587434,25.9489128 228.569823,25.9489128 L237.060975,25.9489128 L235.914173,27.0958931 C235.219522,27.790544 235.219581,28.9167725 235.914292,29.6113641 C236.261617,29.9586895 236.716733,30.1322929 237.171968,30.1322929 C237.627143,30.1322929 238.082437,29.9585709 238.429763,29.6112455 L242.612846,25.4277467 C242.934143,25.1037226 243.132293,24.6601089 243.132293,24.1701891 C243.132293,23.6719093 242.927147,23.2217144 242.597016,22.8988167 Z" id="Fill-1" transform="translate(234.961696, 24.170597) rotate(90.000000) translate(-234.961696, -24.170597) "></path>
        </g>
    </g>
</svg>
