
<svg width="134px" height="17px" viewBox="0 0 134 17" version="1.1" xmlns="http://www.w3.org/2000/svg" xmlns:xlink="http://www.w3.org/1999/xlink">
    <!-- Generator: Sketch 46.2 (44496) - http://www.bohemiancoding.com/sketch -->
    <desc>Created with Sketch.</desc>
    <defs>
        <polygon id="path-1" points="0 16.9600698 133.846491 16.9600698 133.846491 0 0 0"></polygon>
    </defs>
    <g id="DEMO-product-design" stroke="none" stroke-width="1" fill="none" fill-rule="evenodd">
        <g id="DESKTOP---Channel-Direct" transform="translate(-15.000000, -993.000000)">
            <g id="Group" transform="translate(15.000000, 993.000000)">
                <g id="Page-1">
                    <path d="M35.9312329,4.95704186 C39.33503,4.95743721 41.31488,6.95533256 41.31488,9.66703023 L41.31488,16.6467163 L37.7916653,16.6467163 L37.7916653,10.4227395 C37.7916653,9.15604186 36.9720976,8.35585581 35.9308388,8.35546047 C34.9059359,8.35585581 34.0976006,9.13192558 34.0723771,10.3640302 L34.0723771,16.6467163 L34.0700124,16.6467163 L30.5491624,16.6467163 L30.5466006,16.6467163 L30.5466006,10.3640302 C30.52118,9.13192558 29.7128447,8.35585581 28.6881388,8.35546047 C27.64688,8.35585581 26.8273124,9.15604186 26.8273124,10.4227395 L26.8273124,16.6467163 L23.3040976,16.6467163 L23.3040976,9.66703023 C23.3040976,6.95533256 25.2839476,4.95743721 28.6877447,4.95704186 L28.6879418,4.95704186 L28.6881388,4.95704186 L28.68873,4.95704186 C30.1877565,4.95723953 31.4103094,5.34527442 32.3094888,6.01064651 C33.2086682,5.34527442 34.4312212,4.95723953 35.9302476,4.95704186 L35.9310359,4.95704186 L35.9312329,4.95704186 Z" id="Fill-1" fill="#FFFFFF"></path>
                    <path d="M114.755629,4.95704186 L114.755629,4.95704186 L114.755235,4.95704186 L114.754841,4.95704186 L114.754644,4.95704186 C113.255618,4.95723953 112.033065,5.34527442 111.133885,6.01064651 C110.234706,5.34527442 109.012153,4.95723953 107.513126,4.95704186 L107.512732,4.95704186 L107.512141,4.95704186 C104.108344,4.95743721 102.128494,6.95533256 102.128494,9.66703023 L102.128494,16.6467163 L105.651709,16.6467163 L105.651709,10.4227395 C105.651709,9.15604186 106.471276,8.35585581 107.512535,8.35546047 C108.537241,8.35585581 109.345774,9.13192558 109.370997,10.3640302 L109.370997,16.6467163 L109.373559,16.6467163 L112.894409,16.6467163 L112.896576,16.6467163 L112.896576,10.3640302 C112.921997,9.13192558 113.730332,8.35585581 114.755235,8.35546047 C115.796297,8.35585581 116.615865,9.15604186 116.615865,10.4227395 L116.615865,16.6467163 L120.139276,16.6467163 L120.139276,9.66703023 C120.139276,6.95533256 118.159426,4.95743721 114.755629,4.95704186" id="Fill-3" fill="#FFFFFF"></path>
                    <path d="M84.8015256,16.6910744 L81.2781138,16.6910744 L81.2781138,9.29251628 C81.2781138,6.66957442 83.0731226,5.00238837 85.754305,5.00238837 C86.5076609,5.00238837 87.2389462,5.15795814 87.9481609,5.46909767 L87.1946079,8.22566744 C86.8621697,8.11437674 86.5076609,8.04756279 86.2418285,8.04756279 C85.3995991,8.04756279 84.8015256,8.55874884 84.8015256,9.44788837 L84.8015256,16.6910744 Z" id="Fill-5" fill="#FFFFFF"></path>
                    <mask id="mask-2" fill="white">
                        <use xlink:href="#path-1"></use>
                    </mask>
                    <g id="Clip-8"></g>
                    <path d="M56.5294765,16.6471512 L60.0749588,16.6471512 L60.0749588,5.2707907 L56.5294765,5.2707907 L56.5294765,16.6471512 Z M60.3630588,2.02280233 C60.3630588,3.15626744 59.4987588,4.00112791 58.3022176,4.00112791 C57.1056765,4.00112791 56.2636441,3.15626744 56.2636441,2.02280233 C56.2636441,0.933616279 57.1056765,0 58.3022176,0 C59.4987588,0 60.3630588,0.933616279 60.3630588,2.02280233 L60.3630588,2.02280233 Z" id="Fill-7" fill="#FFFFFF" mask="url(#mask-2)"></path>
                    <path d="M79.9924429,5.2707314 L79.9924429,8.09352209 L77.38299,8.09352209 L77.38299,16.6470919 L73.8597753,16.6470919 L73.8597753,4.60476628 C73.8597753,1.98162674 75.6545871,0.314440698 78.3359665,0.314440698 C79.0893224,0.314440698 79.8206076,0.470010465 80.5296253,0.781347674 L79.7760724,3.53771977 C79.4438312,3.42642907 79.0893224,3.35981279 78.8232929,3.35981279 C77.9812606,3.35981279 77.38299,3.87099884 77.38299,4.76013837 L77.38299,5.2707314 L79.9924429,5.2707314 Z" id="Fill-9" fill="#FFFFFF" mask="url(#mask-2)"></path>
                    <path d="M66.9689632,4.95704186 L66.9689632,4.95704186 L66.9685691,4.95704186 L66.9679779,4.95704186 C63.5641809,4.95743721 61.5843309,6.95533256 61.5843309,9.66703023 L61.5843309,16.6467163 L65.1077426,16.6467163 L65.1077426,10.4227395 C65.1077426,9.15604186 65.9273103,8.35585581 66.9685691,8.35565814 C68.0096309,8.35585581 68.8293956,9.15604186 68.8293956,10.4227395 L68.8293956,16.6467163 L72.3526103,16.6467163 L72.3526103,9.66703023 C72.3526103,6.95533256 70.3727603,4.95743721 66.9689632,4.95704186" id="Fill-10" fill="#FFFFFF" mask="url(#mask-2)"></path>
                    <path d="M48.7938338,13.6879256 C47.2295809,13.6879256 45.9615074,12.4657047 45.9615074,10.9582395 C45.9615074,9.45077442 47.2295809,8.22875116 48.7938338,8.22875116 C50.3580868,8.22875116 51.6261603,9.45077442 51.6261603,10.9582395 C51.6261603,12.4657047 50.3580868,13.6879256 48.7938338,13.6879256 M55.0214838,10.9582395 C55.0214838,7.64363488 52.2332985,4.95644884 48.7938338,4.95644884 C45.3543691,4.95644884 42.5661838,7.64363488 42.5661838,10.9582395 C42.5661838,14.2730419 45.3543691,16.9602279 48.7938338,16.9602279 C49.9945132,16.9602279 51.1151868,16.6318907 52.0661926,16.0643674 L52.0661926,16.6471116 L55.0204985,16.6471116 L55.0204985,11.0574721 C55.0204985,11.0574721 55.0214838,10.9924372 55.0214838,10.9582395" id="Fill-11" fill="#FFFFFF" mask="url(#mask-2)"></path>
                    <path d="M94.3939156,13.6879256 C92.8296626,13.6879256 91.5615891,12.4657047 91.5615891,10.9582395 C91.5615891,9.45077442 92.8296626,8.22875116 94.3939156,8.22875116 C95.9579715,8.22875116 97.2262421,9.45077442 97.2262421,10.9582395 C97.2262421,12.4657047 95.9579715,13.6879256 94.3939156,13.6879256 M100.621566,10.9582395 C100.621566,7.64363488 97.8331832,4.95644884 94.3939156,4.95644884 C90.9544509,4.95644884 88.1660685,7.64363488 88.1660685,10.9582395 C88.1660685,14.2730419 90.9544509,16.9602279 94.3939156,16.9602279 C95.594595,16.9602279 96.7152685,16.6318907 97.6662744,16.0643674 L97.6662744,16.6471116 L100.62058,16.6471116 L100.62058,11.0574721 C100.62058,11.0574721 100.621566,10.9924372 100.621566,10.9582395" id="Fill-12" fill="#FFFFFF" mask="url(#mask-2)"></path>
                    <path d="M127.6189,8.22871163 C128.573256,8.22871163 129.414303,8.68533953 129.926853,9.38273488 L125.310947,9.38273488 C125.8233,8.68533953 126.664544,8.22871163 127.6189,8.22871163 L127.6189,8.22871163 Z M133.777777,11.8489209 C133.822706,11.5583395 133.84655,11.2610372 133.84655,10.9583977 C133.84655,7.64359535 131.058365,4.9564093 127.6189,4.9564093 C124.179436,4.9564093 121.39125,7.64359535 121.39125,10.9583977 C121.39125,14.2730023 124.179436,16.9601884 127.6189,16.9601884 C130.415165,16.9601884 132.781053,15.1836884 133.567909,12.7380605 L129.763689,12.7380605 C129.244044,13.3188279 128.476894,13.687886 127.6189,13.687886 C126.378415,13.687886 125.326909,12.9183395 124.94363,11.8483279 L129.608012,11.8483279 L133.777777,11.8489209 Z" id="Fill-13" fill="#FFFFFF" mask="url(#mask-2)"></path>
                    <path d="M14.55977,13.5607023 C13.1269553,13.5607023 11.9654906,12.3954116 11.9654906,10.9583186 C11.9654906,9.52102791 13.1269553,8.35613256 14.55977,8.35613256 C15.9925847,8.35613256 17.1540494,9.52102791 17.1540494,10.9583186 C17.1540494,12.3954116 15.9925847,13.5607023 14.55977,13.5607023 M14.55977,4.95692326 C12.8772818,4.95692326 11.3581553,5.65451628 10.2711788,6.77592326 C11.3191376,7.85680698 11.9654906,9.33145814 11.9654906,10.9583186 C11.9654906,12.5851791 11.3191376,14.0598302 10.2711788,15.1409116 C11.3581553,16.2621209 12.8772818,16.959714 14.55977,16.959714 C17.8640524,16.959714 20.5424759,14.2729233 20.5424759,10.9583186 C20.5424759,7.64371395 17.8640524,4.95692326 14.55977,4.95692326" id="Fill-14" fill="#00A8E7" mask="url(#mask-2)"></path>
                    <path d="M5.98270588,13.5607023 C4.54989118,13.5607023 3.38842647,12.3954116 3.38842647,10.9583186 C3.38842647,9.52102791 4.54989118,8.35613256 5.98270588,8.35613256 C7.41552059,8.35613256 8.57698529,9.52102791 8.57698529,10.9583186 C8.57698529,12.3954116 7.41552059,13.5607023 5.98270588,13.5607023 M10.2712971,6.77592326 C9.18432059,5.65451628 7.66519412,4.95692326 5.98270588,4.95692326 C2.67842353,4.95692326 0,7.64371395 0,10.9583186 C0,14.2729233 2.67842353,16.959714 5.98270588,16.959714 C7.66519412,16.959714 9.18432059,16.2621209 10.2712971,15.1409116 C9.22333824,14.0598302 8.57698529,12.5851791 8.57698529,10.9583186 C8.57698529,9.33145814 9.22333824,7.85680698 10.2712971,6.77592326" id="Fill-15" fill="#DA1157" mask="url(#mask-2)"></path>
                    <path d="M8.57651235,10.9590895 C8.57651235,12.5857523 9.22286529,14.0604035 10.2708241,15.1414849 C11.3187829,14.0604035 11.9649388,12.5857523 11.9649388,10.9590895 C11.9649388,9.33222907 11.3187829,7.85757791 10.2708241,6.77649651 C9.22286529,7.85757791 8.57651235,9.33222907 8.57651235,10.9590895" id="Fill-16" fill="#FFFFFF" mask="url(#mask-2)"></path>
                </g>
            </g>
        </g>
    </g>
</svg>
