
<svg width="27px" height="21px" viewBox="0 0 27 21" version="1.1" xmlns="http://www.w3.org/2000/svg" xmlns:xlink="http://www.w3.org/1999/xlink">
    <!-- Generator: Sketch 48.1 (47250) - http://www.bohemiancoding.com/sketch -->
    <desc>Created with Sketch.</desc>
    <defs></defs>
    <g id="DEMO-product-design" stroke="none" stroke-width="1" fill="none" fill-rule="evenodd">
        <g id="DESKTOP---profile-(my-profile)-Copy-3" transform="translate(-571.000000, -312.000000)" fill="#DA1157">
            <g id="Group-12" transform="translate(571.000000, 311.000000)">
                <g id="Page-1">
                    <path d="M18.9809805,7.16825278 C18.550213,7.16825278 18.2009814,6.81239066 18.2009814,6.37332622 C18.2009814,5.93431477 18.550213,5.57839965 18.9809805,5.57839965 C19.411748,5.57839965 19.7609795,5.93431477 19.7609795,6.37332622 C19.7609795,6.81239066 19.411748,7.16825278 18.9809805,7.16825278 M13.500031,18.1794696 C10.4979706,18.1794696 8.05558549,15.6903955 8.05558549,12.6308822 C8.05558549,9.57136879 10.4979706,7.08229472 13.500031,7.08229472 C16.5020394,7.08229472 18.9444245,9.57136879 18.9444245,12.6308822 C18.9444245,15.6903955 16.5020394,18.1794696 13.500031,18.1794696 M24.5676458,4.12516789 L19.336348,4.12516789 C18.8724566,3.94392463 18.5839089,3.3251008 18.5839089,2.58931677 C18.5839089,1.71124088 17.8854978,0.99946363 17.0239108,0.99946363 L9.68276755,0.99946363 C8.82123258,0.99946363 8.12276941,1.71124088 8.12276941,2.58931677 C8.12276941,3.3251008 7.93645363,3.94392463 7.41999025,4.12516789 L2.4323642,4.12516789 C1.36516947,4.12516789 0.5000465,5.00684744 0.5000465,6.09451897 L0.5000465,19.1672454 C0.5000465,20.2548639 1.36516947,21.1365964 2.4323642,21.1365964 L24.5676458,21.1365964 C25.6348405,21.1365964 26.5000155,20.2548639 26.5000155,19.1672454 L26.5000155,6.09451897 C26.5000155,5.00684744 25.6348405,4.12516789 24.5676458,4.12516789 M2.95946157,3.36314068 C2.52869408,3.36314068 2.1794625,3.00722556 2.1794625,2.56821412 C2.1794625,2.12920267 2.52869408,1.77328755 2.95946157,1.77328755 L6.31283357,1.77328755 C6.74360106,1.77328755 7.09283264,2.12920267 7.09283264,2.56821412 C7.09283264,3.00722556 6.74360106,3.36314068 6.31283357,3.36314068 L2.95946157,3.36314068 Z M13.5000154,8.67214256 C15.6418408,8.67214256 17.3844108,10.4480085 17.3844108,12.6308769 C17.3844108,14.8137452 15.6418408,16.5896112 13.5000154,16.5896112 C11.35819,16.5896112 9.61562003,14.8137452 9.61562003,12.6308769 C9.61562003,10.4480085 11.35819,8.67214256 13.5000154,8.67214256 Z" id="Fill-6"></path>
                </g>
            </g>
        </g>
    </g>
</svg>