
<svg width="32px" height="32px" viewBox="0 0 32 32" version="1.1" xmlns="http://www.w3.org/2000/svg" xmlns:xlink="http://www.w3.org/1999/xlink">
    <!-- Generator: Sketch 46.2 (44496) - http://www.bohemiancoding.com/sketch -->
    <desc>Created with Sketch.</desc>
    <defs></defs>
    <g id="DEMO-product-design" stroke="none" stroke-width="1" fill="none" fill-rule="evenodd">
        <g id="DESKTOP---profile-(my-profile)-Copy" transform="translate(-443.000000, -561.000000)">
            <g id="Group-10" transform="translate(411.000000, 173.000000)">
                <g id="Group-11" transform="translate(32.000000, 388.000000)" fill="#DA1157">
                    <circle id="Oval-3" cx="16" cy="16" r="16"></circle>
                </g>
                <g id="Page-1" transform="translate(47.727922, 403.899495) rotate(45.000000) translate(-47.727922, -403.899495) translate(40.727922, 396.899495)" fill="#FFFFFF">
                    <path d="M12.155299,5.33532362 L8.30467673,5.33532362 L8.30467673,1.4847013 C8.30467673,0.664750263 7.63997596,8.52651283e-14 6.81997543,8.52651283e-14 C6.00002439,8.52651283e-14 5.33527413,0.664750263 5.33527413,1.4847013 L5.33527413,5.33532362 L1.4847013,5.33532362 C0.664700773,5.33532362 -5.68434189e-14,6.00007388 -5.68434189e-14,6.82002492 C-5.68434189e-14,7.63997596 0.664700773,8.30472622 1.4847013,8.30472622 L5.33527413,8.30472622 L5.33527413,12.1553485 C5.33527413,12.9752996 6.00002439,13.6400498 6.81997543,13.6400498 C7.63997596,13.6400498 8.30467673,12.9752996 8.30467673,12.1553485 L8.30467673,8.30472622 L12.155299,8.30472622 C12.9752501,8.30472622 13.6400003,7.63997596 13.6400003,6.82002492 C13.6400003,6.00007388 12.9752501,5.33532362 12.155299,5.33532362" id="Fill-1"></path>
                </g>
            </g>
        </g>
    </g>
</svg>
