
<svg width="16px" height="22px" viewBox="0 0 16 22" version="1.1" xmlns="http://www.w3.org/2000/svg" xmlns:xlink="http://www.w3.org/1999/xlink">
    <!-- Generator: Sketch 46.2 (44496) - http://www.bohemiancoding.com/sketch -->
    <desc>Created with Sketch.</desc>
    <defs>
        <polygon id="path-1" points="16 21.3333333 16 0 0 0 3.31898794e-21 21.3333333"></polygon>
    </defs>
    <g id="DEMO-product-design" stroke="none" stroke-width="1" fill="none" fill-rule="evenodd">
        <g id="DESKTOP---Channel-Dark-Copy" transform="translate(-275.000000, -969.000000)">
            <g id="Page-1" transform="translate(275.000000, 969.333333)">
                <mask id="mask-2" fill="white">
                    <use xlink:href="#path-1"></use>
                </mask>
                <g id="Clip-2"></g>
                <path d="M10.3706939,6.41284267 C10.0922857,6.41284267 9.86657143,6.17693867 9.86657143,5.88590933 L9.86657143,2.56 L13.5509388,6.41284267 L10.3706939,6.41284267 Z M11.8440408,14.854656 L3.9782449,14.854656 C3.59502041,14.854656 3.28436735,14.52992 3.28436735,14.1293227 C3.28436735,13.728768 3.59502041,13.4039893 3.9782449,13.4039893 L11.8440408,13.4039893 C12.2272245,13.4039893 12.5379184,13.728768 12.5379184,14.1293227 C12.5379184,14.52992 12.2272245,14.854656 11.8440408,14.854656 L11.8440408,14.854656 Z M11.8440408,17.8194773 L3.9782449,17.8194773 C3.59502041,17.8194773 3.28436735,17.4946987 3.28436735,17.094144 C3.28436735,16.6935467 3.59502041,16.3688107 3.9782449,16.3688107 L11.8440408,16.3688107 C12.2272245,16.3688107 12.5379184,16.6935467 12.5379184,17.094144 C12.5379184,17.4946987 12.2272245,17.8194773 11.8440408,17.8194773 L11.8440408,17.8194773 Z M3.88795918,10.4392107 L6.85477551,10.4392107 C7.238,10.4392107 7.54865306,10.7639467 7.54865306,11.164544 C7.54865306,11.5651413 7.238,11.8898773 6.85477551,11.8898773 L3.88795918,11.8898773 C3.50473469,11.8898773 3.19408163,11.5651413 3.19408163,11.164544 C3.19408163,10.7639467 3.50473469,10.4392107 3.88795918,10.4392107 L3.88795918,10.4392107 Z M15.5217959,4.85346133 L11.3570612,0.499882667 C11.0508571,0.17984 10.6355918,0 10.2026122,0 L1.63265306,0 C0.730938776,0 0,0.764117333 0,1.70666667 L0,19.6266667 C0,20.5692587 0.730938776,21.3333333 1.63265306,21.3333333 L14.3673469,21.3333333 C15.2690612,21.3333333 16,20.5692587 16,19.6266667 L16,6.06024533 C16,5.60759467 15.828,5.173504 15.5217959,4.85346133 L15.5217959,4.85346133 Z" id="Fill-1" fill="#DA1157" mask="url(#mask-2)"></path>
            </g>
        </g>
    </g>
</svg>
