
<svg width="32px" height="12px" viewBox="0 0 32 12" version="1.1" xmlns="http://www.w3.org/2000/svg" xmlns:xlink="http://www.w3.org/1999/xlink">
    <!-- Generator: Sketch 46.2 (44496) - http://www.bohemiancoding.com/sketch -->
    <desc>Created with Sketch.</desc>
    <defs></defs>
    <g id="DEMO-product-design" stroke="none" stroke-width="1" fill="none" fill-rule="evenodd">
        <g id="DESKTOP---Channel-Dark-Copy" transform="translate(-350.000000, -37.000000)" fill-rule="nonzero" fill="#00A7E7">
            <g id="noun_981738_cc" transform="translate(350.000000, 37.000000)">
                <g id="Group">
                    <path d="M0,0 C0,2.37333112 0,4.7471598 0,7.12098847 C0,8.23202587 0.581984239,9.18533875 1.58155612,9.71075545 C3.91456705,10.9367278 6.46169946,12 8.82210982,12 C12.3738881,12 13.8407725,10.1152666 16.0002537,10.1152666 C17.9933087,10.1152666 19.7483946,12 23.1778902,12 C25.5383005,12 28.085433,10.9367278 30.4184439,9.71075545 C31.4185232,9.18533875 32,8.23202587 32,7.12098847 L32,0 C27.2502577,0.963263952 20.9752803,1.36429223 16.0002537,1.36429223 C11.0252271,1.36429223 4.75075713,0.963263952 0,0 Z M8.57247055,7.54142135 C6.64994371,7.43743262 5.06331362,6.5318849 4.53866523,5.36163861 C5.19067024,4.25557675 6.86964657,3.52616303 8.7921734,3.62915665 C10.7147002,3.73314537 12.3018377,4.6396882 12.8264861,5.80893938 C12.1734663,6.9154988 10.4949974,7.64541007 8.57247055,7.54142135 Z M22.7222478,3.62666888 C24.6468042,3.595323 26.2958441,4.38792603 26.904213,5.51787047 C26.3344063,6.6672195 24.7132732,7.51306078 22.7887168,7.54440667 C20.8631455,7.57575255 19.2141056,6.78364707 18.6057368,5.65320508 C19.1755435,4.50385604 20.7966766,3.65801476 22.7222478,3.62666888 Z" id="Shape"></path>
                </g>
            </g>
        </g>
    </g>
</svg>
