
<svg width="14px" height="14px" viewBox="0 0 14 14" version="1.1" xmlns="http://www.w3.org/2000/svg" xmlns:xlink="http://www.w3.org/1999/xlink">
    <!-- Generator: Sketch 46.2 (44496) - http://www.bohemiancoding.com/sketch -->
    <desc>Created with Sketch.</desc>
    <defs>
        <polygon id="path-1" points="3.79470836e-22 0 14 0 14 14 0 14"></polygon>
    </defs>
    <g id="DEMO-product-design" stroke="none" stroke-width="1" fill="none" fill-rule="evenodd" opacity="0.35">
        <g id="DESKTOP---Channel" transform="translate(-213.000000, -101.000000)">
            <g id="Icons/Plus" transform="translate(205.000000, 93.000000)">
                <g id="Page-1" transform="translate(8.000000, 8.000000)">
                    <mask id="mask-2" fill="white">
                        <use xlink:href="#path-1"></use>
                    </mask>
                    <g id="Clip-2"></g>
                    <path d="M12.49346,5.49346 L8.50654,5.49346 L8.50654,1.50654 C8.50654,0.675836 7.830704,0 7,0 C6.169296,0 5.49346,0.675836 5.49346,1.50654 L5.49346,5.49346 L1.50654,5.49346 C0.675836,5.49346 0,6.169296 0,7 C0,7.830704 0.675836,8.50654 1.50654,8.50654 L5.49346,8.50654 L5.49346,12.49346 C5.49346,13.324164 6.169296,14 7,14 C7.830704,14 8.50654,13.324164 8.50654,12.49346 L8.50654,8.50654 L12.49346,8.50654 C13.324164,8.50654 14,7.830704 14,7 C14,6.169296 13.324164,5.49346 12.49346,5.49346" id="Fill-1" fill="#FFFFFF" mask="url(#mask-2)"></path>
                </g>
            </g>
        </g>
    </g>
</svg>
