
<svg width="15px" height="15px" viewBox="0 0 15 15" version="1.1" xmlns="http://www.w3.org/2000/svg" xmlns:xlink="http://www.w3.org/1999/xlink">
    <!-- Generator: Sketch 46.2 (44496) - http://www.bohemiancoding.com/sketch -->
    <desc>Created with Sketch.</desc>
    <defs></defs>
    <g id="DEMO-product-design" stroke="none" stroke-width="1" fill="none" fill-rule="evenodd">
        <g id="DESKTOP---add-a-contact" transform="translate(-800.000000, -369.000000)" fill="#DA1157">
            <g id="Page-1" transform="translate(807.727922, 376.727922) rotate(45.000000) translate(-807.727922, -376.727922) translate(798.727922, 367.727922)">
                <path d="M15.719104,6.899584 L10.73952,6.899584 L10.73952,1.92 C10.73952,0.859648 9.879936,0 8.81952,0 C7.759168,0 6.89952,0.859648 6.89952,1.92 L6.89952,6.899584 L1.92,6.899584 C0.859584,6.899584 0,7.759232 0,8.819584 C0,9.879936 0.859584,10.739584 1.92,10.739584 L6.89952,10.739584 L6.89952,15.719168 C6.89952,16.77952 7.759168,17.639168 8.81952,17.639168 C9.879936,17.639168 10.73952,16.77952 10.73952,15.719168 L10.73952,10.739584 L15.719104,10.739584 C16.779456,10.739584 17.639104,9.879936 17.639104,8.819584 C17.639104,7.759232 16.779456,6.899584 15.719104,6.899584" id="Fill-1"></path>
            </g>
        </g>
    </g>
</svg>
