
<svg width="32px" height="32px" viewBox="0 0 32 32" version="1.1" xmlns="http://www.w3.org/2000/svg" xmlns:xlink="http://www.w3.org/1999/xlink">
    <!-- Generator: Sketch 46.2 (44496) - http://www.bohemiancoding.com/sketch -->
    <desc>Created with Sketch.</desc>
    <defs></defs>
    <g id="DEMO-product-design" stroke="none" stroke-width="1" fill="none" fill-rule="evenodd">
        <g id="DESKTOP---profile-(my-profile)" transform="translate(-443.000000, -734.000000)">
            <g id="Group-11" transform="translate(443.000000, 734.000000)">
                <circle id="Oval-3" fill="#DA1157" cx="16" cy="16" r="16"></circle>
                <g id="noun_1286508_cc" transform="translate(7.000000, 7.000000)" fill="#FFFFFF">
                    <path d="M0,17.4375 L0,14.625 L0,14.625 C0,14.3143399 0.251839688,14.0625 0.5625,14.0625 L0.5625,14.0625 C0.873160312,14.0625 1.125,14.3143399 1.125,14.625 L1.125,16.875 L3.375,16.875 C3.68566031,16.875 3.9375,17.1268399 3.9375,17.4375 L3.9375,17.4375 C3.9375,17.7481601 3.68566031,18 3.375,18 L0.5625,18 L0.5625,18 C0.251839688,18 0,17.7481601 0,17.4375 L0,17.4375 Z M17.4375,18 L14.625,18 L14.625,18 C14.3143397,18 14.0625,17.7481601 14.0625,17.4375 C14.0625,17.1268399 14.3143397,16.875 14.625,16.875 L16.875,16.875 L16.875,14.625 C16.875,14.3143399 17.1268397,14.0625 17.4375,14.0625 C17.7481603,14.0625 18,14.3143399 18,14.625 L18,17.4375 C18,17.7481601 17.7481603,18 17.4375,18 Z M18,0.5625 L18,3.375 C18,3.68566014 17.7481603,3.9375 17.4375,3.9375 L17.4375,3.9375 C17.1268397,3.9375 16.875,3.68566014 16.875,3.375 L16.875,1.125 L14.625,1.125 L14.625,1.125 C14.3143397,1.125 14.0625,0.873160172 14.0625,0.5625 L14.0625,0.5625 L14.0625,0.5625 C14.0625,0.251839828 14.3143397,0 14.625,0 L17.4375,0 L17.4375,0 C17.7481603,0 18,0.251839828 18,0.5625 L18,0.5625 Z M0.5625,0 L3.375,0 C3.68566031,0 3.9375,0.251839828 3.9375,0.5625 L3.9375,0.5625 C3.9375,0.873160172 3.68566031,1.125 3.375,1.125 L1.125,1.125 L1.125,3.375 C1.125,3.68566014 0.873160312,3.9375 0.5625,3.9375 C0.251839688,3.9375 0,3.68566014 0,3.375 L0,0.5625 L0,0.5625 C0,0.251839828 0.251839688,0 0.5625,0 L0.5625,0 Z M4.44375,3.9375 L13.55625,3.9375 C13.8358443,3.9375 14.0625,4.16415587 14.0625,4.44375 L14.0625,13.55625 C14.0625,13.8358441 13.8358443,14.0625 13.55625,14.0625 L4.44375,14.0625 C4.16415572,14.0625 3.9375,13.8358441 3.9375,13.55625 L3.9375,4.44375 C3.9375,4.16415587 4.16415572,3.9375 4.44375,3.9375 Z M5,5 L5,13 L13,13 L13,5 L5,5 Z M7,7 L11,7 L11,11 L7,11 L7,7 Z" id="Shape"></path>
                </g>
            </g>
        </g>
    </g>
</svg>
