
<svg width="10px" height="7px" viewBox="0 0 10 7" version="1.1" xmlns="http://www.w3.org/2000/svg" xmlns:xlink="http://www.w3.org/1999/xlink">
    <!-- Generator: Sketch 46.2 (44496) - http://www.bohemiancoding.com/sketch -->
    <desc>Created with Sketch.</desc>
    <defs>
        <polygon id="path-1" points="4.59570389e-17 7 4.59570389e-17 0 10 0 10 7"></polygon>
    </defs>
    <g id="DEMO-product-design" stroke="none" stroke-width="1" fill="none" fill-rule="evenodd">
        <g id="DESKTOP---Action-notification" transform="translate(-324.000000, -542.000000)">
            <g id="Page-1" transform="translate(324.000000, 542.000000)">
                <mask id="mask-2" fill="white">
                    <use xlink:href="#path-1"></use>
                </mask>
                <g id="Clip-2"></g>
                <path d="M10,0.977032712 C10,1.22707861 9.90506062,1.47712452 9.71521415,1.66787817 L4.64365654,6.76363786 C4.33004346,7.07878197 3.82154803,7.07878197 3.50790267,6.76367029 L0.28483831,3.52591806 C-0.0949192007,3.14437831 -0.094951482,2.52579932 0.284773747,2.14422713 C0.664498977,1.76265495 1.28016841,1.76262251 1.6599582,2.14412983 L3.50783811,4.00028844 C3.82148346,4.31543256 4.3299789,4.31540012 4.64359198,4.00028844 L8.34002969,0.286154814 C8.7197872,-0.095384938 9.33545664,-0.095384938 9.71521415,0.286154814 C9.90506062,0.476940908 10,0.72698681 10,0.977032712" id="Fill-1" fill="#DA1157" mask="url(#mask-2)"></path>
            </g>
        </g>
    </g>
</svg>
