
<svg width="38px" height="15px" viewBox="0 0 38 15" version="1.1" xmlns="http://www.w3.org/2000/svg" xmlns:xlink="http://www.w3.org/1999/xlink">
    <!-- Generator: Sketch 46.2 (44496) - http://www.bohemiancoding.com/sketch -->
    <desc>Created with Sketch.</desc>
    <defs></defs>
    <g id="DEMO-product-design" stroke="none" stroke-width="1" fill="none" fill-rule="evenodd">
        <g id="DESKTOP---add-a-channel-(Direct)" transform="translate(-774.000000, -658.000000)" fill-rule="nonzero" fill="#727272">
            <g id="Group-6" transform="translate(350.000000, 168.000000)">
                <g id="noun_981738_cc" transform="translate(424.000000, 490.000000)">
                    <g id="Group">
                        <path d="M0,0 C0,2.9666639 0,5.93394975 0,8.90123559 C0,10.2900323 0.691106284,11.4816734 1.8780979,12.1384443 C4.64854837,13.6709097 7.67326811,15 10.4762554,15 C14.6939921,15 16.4359174,12.6440833 19.0003013,12.6440833 C21.3670541,12.6440833 23.4512185,15 27.5237446,15 C30.3267319,15 33.3514516,13.6709097 36.1219021,12.1384443 C37.3094963,11.4816734 38,10.2900323 38,8.90123559 L38,0 C32.359681,1.20407994 24.9081453,1.70536529 19.0003013,1.70536529 C13.0924572,1.70536529 5.64152409,1.20407994 0,0 Z M10.1798088,9.42677668 C7.89680816,9.29679078 6.01268492,8.16485612 5.38966496,6.70204826 C6.16392091,5.31947093 8.1577053,4.40770379 10.4407059,4.53644581 C12.7237065,4.66643171 14.6084323,5.79961025 15.2314523,7.26117423 C14.4559912,8.6443735 12.4628094,9.55676258 10.1798088,9.42677668 Z M26.9826692,4.5333361 C29.26808,4.49415374 31.2263149,5.48490754 31.9487529,6.89733809 C31.2721074,8.33402438 29.3470119,9.39132598 27.0616012,9.43050833 C24.7749853,9.46969069 22.8167504,8.47955884 22.0943124,7.06650634 C22.7709579,5.62982005 24.6960534,4.57251845 26.9826692,4.5333361 Z" id="Shape"></path>
                    </g>
                </g>
            </g>
        </g>
    </g>
</svg>
