
<svg width="18px" height="18px" viewBox="0 0 18 18" version="1.1" xmlns="http://www.w3.org/2000/svg" xmlns:xlink="http://www.w3.org/1999/xlink">
    <!-- Generator: Sketch 49.3 (51167) - http://www.bohemiancoding.com/sketch -->
    <desc>Created with Sketch.</desc>
    <defs></defs>
    <g id="DEMO-product-design" stroke="none" stroke-width="1" fill="none" fill-rule="evenodd">
        <g id="DESKTOP---Channel-Participants-Popup" transform="translate(-711.000000, -695.000000)" fill="#FFFFFF">
            <g id="Icons/Plus+-Circle" transform="translate(711.000000, 695.000000)">
                <g id="Group-5">
                    <g id="Page-1">
                        <path d="M12.8753388,7.9198236 L10.0743228,7.9198236 L10.0743228,5.1188076 C10.0743228,4.5223596 9.5908068,4.0388076 8.9943228,4.0388076 C8.3978748,4.0388076 7.9143228,4.5223596 7.9143228,5.1188076 L7.9143228,7.9198236 L5.1133428,7.9198236 C4.5168588,7.9198236 4.0333428,8.4033756 4.0333428,8.9998236 C4.0333428,9.5962716 4.5168588,10.0798236 5.1133428,10.0798236 L7.9143228,10.0798236 L7.9143228,12.8808396 C7.9143228,13.4772876 8.3978748,13.9608396 8.9943228,13.9608396 C9.5908068,13.9608396 10.0743228,13.4772876 10.0743228,12.8808396 L10.0743228,10.0798236 L12.8753388,10.0798236 C13.4717868,10.0798236 13.9553388,9.5962716 13.9553388,8.9998236 C13.9553388,8.4033756 13.4717868,7.9198236 12.8753388,7.9198236" id="Fill-1"></path>
                        <path d="M9,0 C4.029444,0 0,4.029444 0,9 C0,13.970556 4.029444,18 9,18 C13.970556,18 18,13.970556 18,9 C18,4.029444 13.970556,0 9,0 M9,1.26 C10.04544,1.26 11.058948,1.46448 12.012372,1.867716 C12.9339,2.257488 13.761756,2.81574 14.473008,3.526992 C15.18426,4.238244 15.742512,5.0661 16.132284,5.987628 C16.53552,6.941052 16.74,7.954524 16.74,9 C16.74,10.04544 16.53552,11.058948 16.132284,12.012372 C15.742512,12.9339 15.18426,13.761756 14.473008,14.473008 C13.761756,15.184224 12.9339,15.742512 12.012372,16.132248 C11.058948,16.53552 10.04544,16.74 9,16.74 C7.95456,16.74 6.941052,16.53552 5.987628,16.132248 C5.0661,15.742512 4.238244,15.184224 3.526992,14.473008 C2.815776,13.761756 2.257488,12.9339 1.867716,12.012372 C1.46448,11.058948 1.26,10.04544 1.26,9 C1.26,7.954524 1.46448,6.941052 1.867716,5.987628 C2.257488,5.0661 2.815776,4.238244 3.526992,3.526992 C4.238244,2.81574 5.0661,2.257488 5.987628,1.867716 C6.941052,1.46448 7.95456,1.26 9,1.26" id="Fill-3"></path>
                    </g>
                </g>
            </g>
        </g>
    </g>
</svg>