<?xml version="1.0" encoding="UTF-8"?>
<svg width="17px" height="12px" viewBox="0 0 17 12" version="1.1" xmlns="http://www.w3.org/2000/svg" xmlns:xlink="http://www.w3.org/1999/xlink">
    <!-- Generator: Sketch 47.1 (45422) - http://www.bohemiancoding.com/sketch -->
    <title>Fill 1</title>
    <desc>Created with Sketch.</desc>
    <defs></defs>
    <g id="DEMO-product-design" stroke="none" stroke-width="1" fill="none" fill-rule="evenodd">
        <g id="DESKTOP---Connection" transform="translate(-732.000000, -435.000000)" fill="#FFFFFF">
            <g id="Group-6" transform="translate(435.000000, 416.000000)">
                <g id="Group-5">
                    <path d="M312.805916,23.6899162 C312.805481,23.6888094 311.416358,22.2991519 308.638545,19.5209437 C307.943894,18.8263521 306.817665,18.8263521 306.123014,19.5209437 C305.428363,20.2155946 305.428363,21.3418231 306.123014,22.036474 L307.269105,23.1825649 L298.778724,23.1825649 C297.796335,23.1825649 297,23.9789588 297,24.9612886 C297,25.9436184 297.796335,26.7400122 298.778724,26.7400122 L307.269876,26.7400122 L306.123074,27.8869925 C305.428423,28.5816434 305.428482,29.7078719 306.123192,30.4024635 C306.470518,30.749789 306.925634,30.9233924 307.380868,30.9233924 C307.836044,30.9233924 308.291338,30.7496704 308.638663,30.4023449 L312.821747,26.2188462 C313.143044,25.894822 313.341194,25.4512084 313.341194,24.9612886 C313.341194,24.4630088 313.136047,24.0128138 312.805916,23.6899162 Z" id="Fill-1"></path>
                </g>
            </g>
        </g>
    </g>
</svg>