<?xml version="1.0" encoding="UTF-8"?>
<svg width="106px" height="61px" viewBox="0 0 106 61" version="1.1" xmlns="http://www.w3.org/2000/svg" xmlns:xlink="http://www.w3.org/1999/xlink">
    <!-- Generator: Sketch 47.1 (45422) - http://www.bohemiancoding.com/sketch -->
    <title>Group</title>
    <desc>Created with Sketch.</desc>
    <defs></defs>
    <g id="DEMO-product-design" stroke="none" stroke-width="1" fill="none" fill-rule="evenodd">
        <g id="DESKTOP---Connection" transform="translate(-552.000000, -308.000000)">
            <g id="Group" transform="translate(552.000000, 308.000000)">
                <path d="M74.7096613,43.4469162 C67.4519073,43.4469162 61.5688414,37.5638503 61.5688414,30.3060963 C61.5688414,23.0483422 67.4519073,17.1652763 74.7096613,17.1652763 C81.9674153,17.1652763 87.8504813,23.0483422 87.8504813,30.3060963 C87.8504813,37.5638503 81.9674153,43.4469162 74.7096613,43.4469162 M74.7096613,-0.000499108734 C66.1877362,-0.000499108734 58.4921925,3.52249554 52.9855971,9.18452763 C58.293975,14.6440642 61.5681283,22.0907665 61.5681283,30.3060963 C61.5681283,38.521426 58.293975,45.9681283 52.9855971,51.4269519 C58.4921925,57.089697 66.1877362,60.6119786 74.7096613,60.6119786 C91.4476292,60.6119786 105.015544,47.0433512 105.015544,30.3060963 C105.015544,13.5681283 91.4476292,-0.000499108734 74.7096613,-0.000499108734" id="Fill-14" fill="#00A8E7"></path>
                <path d="M31.2618895,43.4469162 C24.0041355,43.4469162 18.1210695,37.5638503 18.1210695,30.3060963 C18.1210695,23.0483422 24.0041355,17.1652763 31.2618895,17.1652763 C38.5196435,17.1652763 44.4034225,23.0483422 44.4034225,30.3060963 C44.4034225,37.5638503 38.5196435,43.4469162 31.2618895,43.4469162 M52.9859537,9.18452763 C47.4800713,3.52249554 39.7845276,-0.000499108734 31.2618895,-0.000499108734 C14.5246346,-0.000499108734 0.95600713,13.5681283 0.95600713,30.3060963 C0.95600713,47.0433512 14.5246346,60.6119786 31.2618895,60.6119786 C39.7845276,60.6119786 47.4800713,57.089697 52.9859537,51.4269519 C47.6775758,45.9681283 44.4034225,38.521426 44.4034225,30.3060963 C44.4034225,22.0907665 47.6775758,14.6440642 52.9859537,9.18452763" id="Fill-15" fill="#DA1157"></path>
                <path d="M44.401426,30.3091622 C44.401426,38.524492 47.6755793,45.9719073 52.9832442,51.4307308 C58.2916221,45.9719073 61.5657754,38.524492 61.5657754,30.3091622 C61.5657754,22.0938324 58.2916221,14.6471301 52.9832442,9.1883066 C47.6755793,14.6471301 44.401426,22.0938324 44.401426,30.3091622" id="Fill-16" fill="#1F3464"></path>
            </g>
        </g>
    </g>
</svg>