
<svg width="24px" height="19px" viewBox="0 0 24 19" version="1.1" xmlns="http://www.w3.org/2000/svg" xmlns:xlink="http://www.w3.org/1999/xlink">
    <!-- Generator: Sketch 49.3 (51167) - http://www.bohemiancoding.com/sketch -->
    <desc>Created with Sketch.</desc>
    <defs></defs>
    <g id="DEMO-product-design" stroke="none" stroke-width="1" fill="none" fill-rule="evenodd" opacity="0.66162817">
        <g id="DESKTOP---Channel-Participants" transform="translate(-1135.000000, -41.000000)" fill="#727272">
            <g id="Icons/Grey-users" transform="translate(1135.000000, 39.000000)">
                <g id="Page-1" transform="translate(0.000000, 2.666667)">
                    <path d="M23.9579303,13.3905925 C23.5968721,10.5657004 21.1448321,8.38054807 18.1736898,8.38054807 C17.0343872,8.38054807 15.9716056,8.70212722 15.0736016,9.25759073 C15.5561507,9.55946585 16.016287,9.9003217 16.4491527,10.278449 C17.6703631,11.3452675 18.6191567,12.6582201 19.2396938,14.1125669 L23.3138741,14.1125669 C23.7049924,14.1125669 24.0069403,13.7736577 23.9579303,13.3905925" id="Fill-1"></path>
                    <path d="M18.1737042,7.89713006 C19.6128866,7.89713006 20.779604,6.7453706 20.779604,5.32463936 C20.779604,3.90386064 19.6128866,2.75214866 18.1737042,2.75214866 C16.7344737,2.75214866 15.5677563,3.90386064 15.5677563,5.32463936 C15.5677563,6.7453706 16.7344737,7.89713006 18.1737042,7.89713006" id="Fill-3"></path>
                    <g id="Group-7" transform="translate(0.000000, 9.008299)">
                        <path d="M9.28492665,0.0183033751 C4.51994068,0.0183033751 0.587451703,3.5227706 0.00837354709,8.0532239 C-0.0701675351,8.66751461 0.414113026,9.21106075 1.04133547,9.21106075 L17.5285178,9.21106075 C18.1557884,9.21106075 18.6400208,8.66751461 18.5614798,8.0532239 C17.9824016,3.5227706 14.0499126,0.0183033751 9.28492665,0.0183033751" id="Fill-5"></path>
                    </g>
                    <path d="M11.2331976,7.77615686 C12.5598349,7.08475933 13.4641876,5.709561 13.4641876,4.12564247 C13.4641876,1.8470978 11.5930533,0 9.28491703,0 C6.97678076,0 5.10569459,1.8470978 5.10569459,4.12564247 C5.10569459,5.709561 6.0099992,7.08475933 7.33663647,7.77615686 C7.91840802,8.07936141 8.58126974,8.25128494 9.28491703,8.25128494 C9.98856433,8.25128494 10.6514261,8.07936141 11.2331976,7.77615686" id="Fill-8"></path>
                </g>
            </g>
        </g>
    </g>
</svg>