
<svg width="42px" height="42px" viewBox="0 0 42 42" version="1.1" xmlns="http://www.w3.org/2000/svg" xmlns:xlink="http://www.w3.org/1999/xlink">
    <!-- Generator: Sketch 46.2 (44496) - http://www.bohemiancoding.com/sketch -->
    <desc>Created with Sketch.</desc>
    <defs></defs>
    <g id="Symbols" stroke="none" stroke-width="1" fill="none" fill-rule="evenodd">
        <g id="File-1" transform="translate(-3.000000, -3.000000)">
            <g id="Group-15" transform="translate(3.000000, 3.000000)">
                <g id="Group-14">
                    <circle id="Oval-9" fill="#D72323" cx="21" cy="21" r="21"></circle>
                    <path d="M12.09657,30.7317073 C11.2335944,30.7317073 10.6902393,30.1225238 10.498467,29.705714 C10.3066946,29.385091 9.76333953,28.1987862 11.2655564,26.6597962 C11.9047977,25.986488 13.119356,24.7681209 16.2516381,23.7100653 C16.6671449,22.8443834 17.1146138,21.8825146 17.5940447,20.8885835 C18.1054377,19.7664033 18.5209445,18.8045345 18.8405651,17.9388526 C17.5620826,15.8868659 17.3383482,14.3799382 17.3703103,12.6806367 C17.4022723,10.7568991 18.6807548,10.2439024 19.3519581,10.2439024 C19.3839202,10.2439024 21.2057577,10.308027 21.333606,13.0974465 C21.365568,14.1234398 21.2057577,15.3097446 20.2788579,17.7785412 C20.9180992,18.7404099 21.8130369,19.8305279 22.9317091,21.0809573 C23.3152538,21.5298294 23.6987985,21.9145769 24.0184192,22.2672621 C24.3380398,22.2672621 24.6576604,22.2351998 24.977281,22.2351998 C27.7260184,22.2351998 29.100387,22.8443834 29.6757041,23.1970686 C30.8902625,23.9665636 30.8263384,25.1849307 30.6026039,25.6979274 C30.4427936,26.1147372 29.8355144,26.8842322 28.6209561,26.8842322 C28.3332975,26.8842322 28.0136769,26.8521699 27.6940563,26.7559831 C26.6712703,26.4674224 25.9041808,26.0506126 23.5389882,23.5818161 C22.4522781,23.678003 21.2377198,23.8383144 19.9592373,24.0948128 C18.9684134,24.2871865 18.0095515,24.5116226 17.1785379,24.7681209 C14.5576488,29.8660254 13.3430905,30.3790221 12.9595457,30.5393336 C12.6718872,30.6675827 12.3842286,30.7317073 12.09657,30.7317073 Z M15.3567004,25.4093668 C13.4709387,26.2109241 12.6399251,27.0445437 12.1604942,27.5575404 C11.2335944,28.5194091 11.553215,29.0324058 11.553215,29.0324058 L11.6491012,29.1285927 L11.6491012,29.160655 C11.6491012,29.1927173 11.8089115,29.4492156 12.09657,29.4492156 C12.1924562,29.4492156 12.3203045,29.4171533 12.4481527,29.3530287 C12.7038492,29.2568419 13.598787,28.6476583 15.3567004,25.4093668 Z M25.2329775,23.5176915 C26.8310806,25.1528684 27.3744357,25.3452422 28.0136769,25.5055536 C28.2374113,25.5696782 28.4291837,25.6017405 28.6209561,25.6017405 C29.2282353,25.6017405 29.3880456,25.2490553 29.3880456,25.216993 C29.4519697,25.0566816 29.5478559,24.6078095 29.0045008,24.2551242 C28.6209561,24.0627505 27.566208,23.5497538 25.2329775,23.5176915 Z M17.9775895,23.132944 L17.9456274,23.1970686 C18.4889824,23.0688194 19.0962616,22.908508 19.7035408,22.8123211 C20.6304406,22.6199473 21.5573404,22.4916982 22.4203161,22.3955113 L22.388354,22.363449 L22.388354,22.363449 C22.2605058,22.2351998 22.1326575,22.1069506 22.0048093,21.9466392 C21.0779095,20.9527081 20.342782,20.0229016 19.7355029,19.2213443 L19.7035408,19.2534066 L19.7035408,19.2534066 C19.4158822,19.9267148 19.1282237,20.6320852 18.776641,21.4336425 C18.4889824,22.0107638 18.2013239,22.587885 17.9775895,23.132944 L17.9775895,23.132944 Z M19.3199961,11.4943318 C19.1282237,11.5263941 18.6807548,11.6546433 18.6487928,12.6485744 C18.6168307,13.70663 18.6807548,14.796748 19.4158822,16.3036757 C20.0231614,14.476125 20.0551235,13.70663 20.0551235,13.0974465 C19.9911994,11.7508302 19.4158822,11.5263941 19.3199961,11.4943318 Z" id="Shape" fill="#FFFFFF" fill-rule="nonzero"></path>
                </g>
                <g id="acrobat-outline" transform="translate(8.195122, 7.170732)"></g>
            </g>
        </g>
    </g>
</svg>
